<svg width="58" height="25" viewBox="0 0 58 25" fill="none" xmlns="http://www.w3.org/2000/svg">
<path fill-rule="evenodd" clip-rule="evenodd" d="M9.10016 0.756074C6.30534 1.5119 4.75512 2.1721 2.58187 3.89623C2.27476 4.14058 2.12488 4.30146 1.86332 4.57161C1.02282 5.43519 0.105913 6.81935 0.0104014 8.34162C-0.18356 11.4484 2.37027 12.6656 4.73602 13.2757C5.90126 13.5762 6.84903 13.596 7.77034 13.7584C9.85103 14.1256 14.3489 14.0088 16.503 14.0133C19.7284 14.0209 23.7898 13.901 26.4803 13.0177C27.647 12.6352 29.1311 11.9644 29.7703 10.7715C31.6438 7.2777 28.323 3.74598 25.3356 2.27683L23.3637 1.40717C19.2288 -0.239549 13.4408 -0.420157 9.10016 0.756074ZM25.7868 6.14852C26.6566 6.14852 27.362 6.87702 27.362 7.77551C27.362 8.67552 26.6566 9.40402 25.7868 9.40402C24.9169 9.40402 24.2115 8.67552 24.2115 7.77551C24.2115 6.87702 24.9169 6.14852 25.7868 6.14852ZM19.7034 3.07059C20.5733 3.07059 21.2786 3.7991 21.2786 4.69758C21.2786 5.59607 20.5733 6.32458 19.7034 6.32458C18.8335 6.32458 18.1282 5.59607 18.1282 4.69758C18.1282 3.7991 18.8335 3.07059 19.7034 3.07059ZM12.1404 3.07211C13.0103 3.07211 13.7156 3.80061 13.7156 4.6991C13.7156 5.59759 13.0103 6.32609 12.1404 6.32609C11.2705 6.32609 10.5652 5.59759 10.5652 4.6991C10.5652 3.80061 11.2705 3.07211 12.1404 3.07211ZM6.03203 6.16066C6.90192 6.16066 7.60724 6.88917 7.60724 7.78765C7.60724 8.68614 6.90192 9.41616 6.03203 9.41616C5.16068 9.41616 4.45536 8.68614 4.45536 7.78765C4.45536 6.88917 5.16068 6.16066 6.03203 6.16066Z" fill="#FE9B0B"/>
<path fill-rule="evenodd" clip-rule="evenodd" d="M2.40994 18.7228L7.66895 18.7258C7.96137 19.1827 8.34635 19.55 8.72693 19.9749L11.7583 23.3443C11.8127 23.3959 11.7642 23.4611 12.0331 23.4839C12.3667 23.5112 12.4666 22.5778 12.5356 22.335C12.6576 21.913 12.7751 21.5245 12.8883 21.1314C13.0117 20.7125 13.3188 19.0248 13.6862 18.8108C14.03 18.6105 24.6171 18.7274 26.3525 18.7274H28.4743C29.5911 18.7274 30.3713 18.4177 30.2831 16.9471C30.1818 15.2882 27.8351 15.6373 26.0498 15.6388L2.6377 15.6449C2.0279 15.6449 1.29319 15.572 0.840617 15.8073C0.379223 16.0486 0.073586 16.4675 0.0162791 17.0412C-0.0439667 17.6498 0.229343 18.1597 0.6349 18.4724C1.10805 18.8382 1.71638 18.7228 2.40994 18.7228Z" fill="#FE9B0B"/>
<path fill-rule="evenodd" clip-rule="evenodd" d="M14.1255 23.3989C15.0366 23.5309 26.4833 23.4292 28.4743 23.4353C29.3721 23.4368 29.7924 23.3169 30.1421 22.6643C30.4698 22.0512 30.2861 21.1542 29.8673 20.755C29.1061 20.0311 26.7301 20.3285 25.5193 20.3301L15.8962 20.3316C14.6766 20.3361 14.8264 20.2572 14.4738 21.3424C14.3004 21.8751 13.9433 22.8161 14.1255 23.3989Z" fill="#FE9B0B"/>
<path fill-rule="evenodd" clip-rule="evenodd" d="M1.1345 20.3953C0.761269 20.5623 0.429183 20.67 0.233751 21.0358C0.0662389 21.35 -0.063069 21.8447 0.080933 22.3243C0.396856 23.3761 1.05074 23.4308 2.18219 23.4323C4.27756 23.4384 6.37588 23.4384 8.47125 23.4338C8.84154 23.4323 9.7467 23.578 9.44988 23.0695C9.40139 22.9876 8.77983 22.379 8.64905 22.2454C8.15239 21.7385 7.54259 21.1694 7.05915 20.6017C6.86372 20.3726 6.91662 20.3468 6.58306 20.3225C5.75873 20.2633 1.32846 20.3073 1.1345 20.3953Z" fill="#FE9B0B"/>
<path d="M34.373 10.0875C34.46 10.1003 34.5315 10.1068 34.5875 10.1068C34.6435 10.1068 34.7025 10.1068 34.7647 10.1068C35.1005 10.1068 35.3679 10.0425 35.5669 9.91406C35.7659 9.7856 35.8654 9.61539 35.8654 9.40342C35.8654 9.21073 35.7784 9.063 35.6042 8.96023C35.4363 8.85746 35.1876 8.80607 34.858 8.80607C34.7523 8.80607 34.6559 8.8125 34.5688 8.82534C34.488 8.83177 34.4227 8.84461 34.373 8.86388V10.0875ZM32.9085 15.4154C32.9147 15.12 32.9178 14.8342 32.9178 14.558C32.924 14.2753 32.9272 13.9992 32.9272 13.7294C32.9334 13.4532 32.9365 13.177 32.9365 12.9008C32.9365 12.6246 32.9365 12.3388 32.9365 12.0433C32.9365 11.2019 32.9303 10.3958 32.9178 9.62502C32.9116 8.85425 32.8961 8.16698 32.8712 7.5632C33.2194 7.51182 33.577 7.47649 33.9439 7.45722C34.3108 7.43153 34.6404 7.41868 34.9326 7.41868C36.6614 7.41868 37.5258 7.93574 37.5258 8.96986C37.5258 9.37452 37.4107 9.72137 37.1806 10.0104C36.9568 10.293 36.6583 10.4664 36.2852 10.5307C36.8884 10.6463 37.3299 10.8872 37.6097 11.2533C37.8895 11.613 38.0295 12.1236 38.0295 12.7852C38.0295 13.7165 37.7496 14.407 37.19 14.8566C36.6303 15.2998 35.7597 15.5214 34.5782 15.5214C34.3481 15.5214 34.09 15.5118 33.804 15.4925C33.5241 15.4797 33.2256 15.454 32.9085 15.4154ZM34.373 12.8237C34.4351 12.843 34.5284 12.8591 34.6528 12.8719C34.7772 12.8847 34.8984 12.8912 35.0166 12.8912C35.4083 12.8912 35.7037 12.8269 35.9027 12.6985C36.1079 12.57 36.2105 12.387 36.2105 12.1493C36.2105 11.9052 36.1017 11.719 35.8841 11.5905C35.6726 11.462 35.3773 11.3978 34.9979 11.3978C34.9171 11.3978 34.8269 11.401 34.7274 11.4074C34.6341 11.4139 34.516 11.4235 34.373 11.4363V12.8237Z" fill="#FE9B0B"/>
<path d="M40.781 15.4154V14.9048C40.6318 15.0911 40.4514 15.242 40.24 15.3576C40.0286 15.4668 39.814 15.5214 39.5964 15.5214C39.4596 15.5214 39.3259 15.4989 39.1953 15.454C39.0709 15.4154 38.9559 15.3608 38.8502 15.2902C38.7444 15.2195 38.6512 15.136 38.5703 15.0397C38.4957 14.9369 38.4397 14.8277 38.4024 14.7121C38.3776 14.6222 38.3558 14.4937 38.3371 14.3267C38.3247 14.1533 38.3185 13.9702 38.3185 13.7776V9.65392H39.6897V12.5443C39.6897 12.737 39.7332 12.8912 39.8203 13.0068C39.9073 13.116 40.0255 13.1706 40.1747 13.1706C40.2493 13.1706 40.324 13.1545 40.3986 13.1224C40.4794 13.0903 40.5478 13.0485 40.6038 12.9971C40.666 12.9458 40.7157 12.8847 40.753 12.8141C40.7903 12.7434 40.809 12.6696 40.809 12.5925V9.65392H42.1802C42.174 9.86589 42.1678 10.0907 42.1615 10.3283C42.1553 10.5596 42.1491 10.794 42.1429 11.0317C42.1367 11.2629 42.1304 11.4941 42.1242 11.7254C42.1242 11.9566 42.1242 12.175 42.1242 12.3805C42.1242 12.5026 42.1242 12.6856 42.1242 12.9297C42.1242 13.1738 42.1242 13.4403 42.1242 13.7294C42.1304 14.0184 42.1336 14.3139 42.1336 14.6158C42.1336 14.9177 42.1336 15.1842 42.1336 15.4154H40.781Z" fill="#FE9B0B"/>
<path d="M43.7938 9.65392L43.859 10.3862C43.9337 10.2641 44.0238 10.1517 44.1296 10.0489C44.2353 9.94617 44.3441 9.85946 44.456 9.78881C44.5742 9.71173 44.6892 9.65392 44.8012 9.61538C44.9193 9.57042 45.0281 9.54794 45.1276 9.54794C45.1401 9.71494 45.1494 9.90764 45.1556 10.126C45.168 10.338 45.1743 10.5564 45.1743 10.7812C45.1743 11.0381 45.168 11.2918 45.1556 11.5423C45.1494 11.7928 45.1401 12.024 45.1276 12.236C45.0717 12.2103 44.9939 12.191 44.8944 12.1782C44.7949 12.1654 44.711 12.1589 44.6426 12.1589C44.4125 12.1589 44.2415 12.2167 44.1296 12.3324C44.0238 12.4416 43.971 12.5796 43.971 12.7466V15.4154H42.5998C42.606 14.3749 42.6091 13.389 42.6091 12.4576C42.6153 11.5198 42.6184 10.5853 42.6184 9.65392H43.7938Z" fill="#FE9B0B"/>
<path d="M48.779 14.741C48.5427 14.9337 48.3251 15.0718 48.1261 15.1553C47.9333 15.2388 47.7219 15.2806 47.4918 15.2806C47.1809 15.2806 46.8979 15.2163 46.643 15.0879C46.388 14.953 46.1672 14.7699 45.9807 14.5387C45.8004 14.301 45.6573 14.0184 45.5516 13.6908C45.4521 13.3633 45.4024 13.0036 45.4024 12.6118C45.4024 12.1878 45.4583 11.7928 45.5703 11.4267C45.6884 11.0542 45.847 10.7298 46.046 10.4536C46.2512 10.171 46.4875 9.94939 46.7549 9.78881C47.0223 9.62823 47.3083 9.54794 47.6131 9.54794C48.067 9.54794 48.4557 9.74385 48.779 10.1357V9.65392H50.1036V12.7563C50.1036 13.3279 50.0942 13.8129 50.0756 14.2111C50.0632 14.6093 50.0414 14.9241 50.0103 15.1553C49.917 15.8362 49.6652 16.3564 49.2547 16.7161C48.8505 17.0822 48.3157 17.2653 47.6504 17.2653C47.3705 17.2653 47.1031 17.2332 46.8482 17.169C46.5994 17.1047 46.3693 17.0116 46.1579 16.8895V15.7045C46.6119 15.9421 47.0658 16.061 47.5198 16.061C47.9302 16.061 48.2411 15.971 48.4526 15.7912C48.6702 15.6114 48.779 15.3544 48.779 15.0204V14.741ZM47.184 11.9373C47.184 12.2007 47.2524 12.4126 47.3892 12.5732C47.526 12.7338 47.7063 12.8141 47.9302 12.8141C48.0484 12.8141 48.1572 12.7916 48.2567 12.7466C48.3624 12.6953 48.4526 12.6278 48.5272 12.5443C48.608 12.4608 48.6702 12.3645 48.7137 12.2553C48.7573 12.1397 48.779 12.0176 48.779 11.8892C48.779 11.7671 48.7573 11.6515 48.7137 11.5423C48.6764 11.4331 48.6205 11.34 48.5458 11.2629C48.4712 11.1794 48.3841 11.1152 48.2847 11.0702C48.1852 11.0253 48.0794 11.0028 47.9675 11.0028C47.7436 11.0028 47.5571 11.0895 47.4078 11.2629C47.2586 11.4363 47.184 11.6611 47.184 11.9373Z" fill="#FE9B0B"/>
<path d="M52.4736 12.3805C52.5545 12.6567 52.6882 12.8815 52.8747 13.055C53.0613 13.2284 53.3194 13.3151 53.6489 13.3151C53.7484 13.3151 53.8542 13.3087 53.9661 13.2958C54.0842 13.2766 54.1993 13.2541 54.3112 13.2284C54.4232 13.1963 54.5289 13.1641 54.6284 13.132C54.7279 13.0935 54.8149 13.0582 54.8895 13.0261C54.902 13.2123 54.9082 13.4114 54.9082 13.6234C54.9144 13.8289 54.9175 14.0345 54.9175 14.24C54.9175 14.5804 54.9082 14.8855 54.8895 15.1553C54.4045 15.3994 53.8604 15.5214 53.2572 15.5214C52.9773 15.5214 52.6944 15.4893 52.4083 15.4251C52.1223 15.3609 51.8456 15.2388 51.5782 15.059C51.3419 14.8984 51.146 14.7121 50.9905 14.5002C50.8413 14.2818 50.7231 14.0602 50.6361 13.8354C50.549 13.6041 50.4899 13.3793 50.4588 13.1609C50.4277 12.9426 50.4122 12.7466 50.4122 12.5732C50.4122 12.3163 50.4402 12.0497 50.4961 11.7735C50.5583 11.4909 50.6516 11.2244 50.776 10.9739C50.9003 10.7169 51.0589 10.4825 51.2517 10.2705C51.4445 10.0586 51.6715 9.89158 51.9326 9.76954C52.2498 9.62181 52.5856 9.54794 52.94 9.54794C53.3131 9.54794 53.6489 9.62502 53.9474 9.77917C54.2459 9.93333 54.4884 10.1453 54.675 10.4151C54.8553 10.672 54.9673 10.9578 55.0108 11.2725C55.0606 11.5873 55.0854 11.9566 55.0854 12.3805H52.4736ZM53.0053 10.5885C52.8747 10.5885 52.7504 10.6463 52.6322 10.7619C52.5141 10.8711 52.4363 11.067 52.399 11.3496H53.621C53.5961 11.0927 53.5215 10.9032 53.3971 10.7812C53.2789 10.6527 53.1483 10.5885 53.0053 10.5885Z" fill="#FE9B0B"/>
<path d="M56.6195 9.65392L56.6848 10.3862C56.7594 10.2641 56.8496 10.1517 56.9553 10.0489C57.061 9.94617 57.1698 9.85946 57.2818 9.78881C57.3999 9.71173 57.515 9.65392 57.6269 9.61538C57.745 9.57042 57.8539 9.54794 57.9534 9.54794C57.9658 9.71494 57.9751 9.90764 57.9813 10.126C57.9938 10.338 58 10.5564 58 10.7812C58 11.0381 57.9938 11.2918 57.9813 11.5423C57.9751 11.7928 57.9658 12.024 57.9534 12.236C57.8974 12.2103 57.8197 12.191 57.7202 12.1782C57.6207 12.1654 57.5367 12.1589 57.4683 12.1589C57.2382 12.1589 57.0672 12.2167 56.9553 12.3324C56.8496 12.4416 56.7967 12.5796 56.7967 12.7466V15.4154H55.4255C55.4317 14.3749 55.4349 13.389 55.4349 12.4576C55.4411 11.5198 55.4442 10.5853 55.4442 9.65392H56.6195Z" fill="#FE9B0B"/>
<path d="M32.8264 17.3231C33.11 17.282 33.3811 17.2537 33.6398 17.2383C33.8985 17.2178 34.1199 17.2075 34.3039 17.2075C34.7417 17.2075 35.1447 17.2692 35.5128 17.3925C35.881 17.5158 36.2043 17.7368 36.4829 18.0553C36.7366 18.3534 36.9257 18.7156 37.05 19.1421C37.1744 19.5635 37.2366 20.0182 37.2366 20.5064C37.2366 20.9843 37.1769 21.4185 37.0575 21.809C36.9381 22.1995 36.754 22.5335 36.5053 22.811C36.2615 23.0885 35.9531 23.3043 35.58 23.4585C35.2069 23.6126 34.7666 23.6897 34.2592 23.6897C34.1447 23.6897 33.9582 23.6845 33.6995 23.6743C33.4458 23.664 33.1647 23.6409 32.8563 23.6049C32.8612 23.3685 32.8637 23.1399 32.8637 22.9189C32.8687 22.6928 32.8712 22.4719 32.8712 22.2561C32.8762 22.0351 32.8786 21.8141 32.8786 21.5932C32.8786 21.3722 32.8786 21.1436 32.8786 20.9072C32.8786 20.2341 32.8737 19.5892 32.8637 18.9726C32.8587 18.3559 32.8463 17.8061 32.8264 17.3231ZM34.2741 18.487C34.2243 18.487 34.1771 18.4895 34.1323 18.4947C34.0925 18.4998 34.0527 18.505 34.0129 18.5101C34.0079 18.7516 34.0054 18.9931 34.0054 19.2346C34.0054 19.471 34.0054 19.7099 34.0054 19.9514C34.0054 20.0696 34.0054 20.1955 34.0054 20.3291C34.0104 20.4627 34.0129 20.6015 34.0129 20.7453C34.0179 20.8841 34.0229 21.0254 34.0278 21.1693C34.0328 21.308 34.0353 21.439 34.0353 21.5624C34.0801 21.5726 34.1248 21.5803 34.1696 21.5855C34.2144 21.5855 34.2542 21.5855 34.289 21.5855C34.4731 21.5855 34.6422 21.5444 34.7964 21.4622C34.9556 21.3799 35.0924 21.2695 35.2069 21.1307C35.3263 20.9868 35.4183 20.8198 35.483 20.6297C35.5476 20.4396 35.58 20.2366 35.58 20.0208C35.58 19.8615 35.5576 19.6919 35.5128 19.5121C35.473 19.3271 35.4009 19.1601 35.2964 19.0111C35.1969 18.8621 35.0626 18.7388 34.8935 18.6411C34.7293 18.5384 34.5228 18.487 34.2741 18.487Z" fill="#FE9B0B"/>
<path d="M39.0275 21.177C39.0922 21.3979 39.1992 21.5778 39.3484 21.7165C39.4977 21.8552 39.7041 21.9246 39.9678 21.9246C40.0474 21.9246 40.1319 21.9195 40.2215 21.9092C40.316 21.8938 40.4081 21.8758 40.4976 21.8552C40.5871 21.8296 40.6717 21.8039 40.7513 21.7782C40.8309 21.7473 40.9006 21.7191 40.9603 21.6934C40.9702 21.8424 40.9752 22.0017 40.9752 22.1713C40.9802 22.3357 40.9826 22.5001 40.9826 22.6646C40.9826 22.9369 40.9752 23.181 40.9603 23.3968C40.5722 23.5921 40.1369 23.6897 39.6544 23.6897C39.4305 23.6897 39.2041 23.664 38.9753 23.6126C38.7465 23.5612 38.5251 23.4636 38.3112 23.3197C38.1221 23.1913 37.9654 23.0422 37.841 22.8727C37.7216 22.698 37.6271 22.5207 37.5575 22.3408C37.4878 22.1558 37.4406 21.976 37.4157 21.8013C37.3908 21.6266 37.3784 21.4699 37.3784 21.3311C37.3784 21.1256 37.4008 20.9123 37.4455 20.6914C37.4953 20.4653 37.5699 20.252 37.6694 20.0516C37.7689 19.8461 37.8958 19.6585 38.05 19.489C38.2042 19.3194 38.3858 19.1858 38.5947 19.0882C38.8484 18.97 39.1171 18.9109 39.4007 18.9109C39.6991 18.9109 39.9678 18.9726 40.2066 19.0959C40.4454 19.2192 40.6394 19.3888 40.7886 19.6046C40.9329 19.8101 41.0224 20.0388 41.0573 20.2906C41.0971 20.5424 41.117 20.8378 41.117 21.177H39.0275ZM39.4529 19.7433C39.3484 19.7433 39.2489 19.7896 39.1544 19.8821C39.0599 19.9694 38.9977 20.1262 38.9678 20.3522H39.9454C39.9255 20.1467 39.8658 19.9951 39.7663 19.8975C39.6718 19.7947 39.5673 19.7433 39.4529 19.7433Z" fill="#FE9B0B"/>
<path d="M42.5606 17.1227C42.5357 17.837 42.5158 18.5615 42.5009 19.2963C42.491 20.0311 42.486 20.8121 42.486 21.6394C42.486 21.9888 42.486 22.2715 42.486 22.4873C42.486 22.698 42.486 22.8727 42.486 23.0114C42.486 23.145 42.486 23.2555 42.486 23.3428C42.491 23.4251 42.4935 23.5124 42.4935 23.6049H41.3741C41.389 23.1527 41.399 22.6235 41.404 22.0171C41.4089 21.4108 41.4114 20.7068 41.4114 19.9052C41.4114 19.5558 41.4114 19.2603 41.4114 19.0188C41.4114 18.7722 41.4089 18.5486 41.404 18.3482C41.404 18.1478 41.404 17.9551 41.404 17.7702C41.404 17.58 41.404 17.3642 41.404 17.1227H42.5606Z" fill="#FE9B0B"/>
<path d="M42.8833 19.119H43.9803V23.6049H42.8833V19.119ZM43.4579 17.2075C43.5773 17.2075 43.6842 17.2332 43.7788 17.2846C43.8783 17.3308 43.9604 17.3925 44.025 17.4696C44.0897 17.5466 44.1394 17.634 44.1743 17.7316C44.2091 17.8241 44.2265 17.914 44.2265 18.0014C44.2265 18.1196 44.2041 18.23 44.1593 18.3328C44.1195 18.4305 44.0623 18.5178 43.9877 18.5949C43.9181 18.6668 43.836 18.7259 43.7415 18.7722C43.6519 18.8133 43.5549 18.8338 43.4504 18.8338C43.3211 18.8338 43.2067 18.8133 43.1072 18.7722C43.0077 18.7259 42.9231 18.6694 42.8535 18.6026C42.7888 18.5307 42.739 18.4484 42.7042 18.3559C42.6744 18.2635 42.6594 18.1684 42.6594 18.0708C42.6594 17.9731 42.6768 17.8729 42.7117 17.7702C42.7515 17.6674 42.8037 17.5749 42.8684 17.4927C42.938 17.4053 43.0226 17.336 43.1221 17.2846C43.2216 17.2332 43.3335 17.2075 43.4579 17.2075Z" fill="#FE9B0B"/>
<path d="M47.5936 18.9957L46.5862 23.6049H45.1758L44.1535 18.9957H45.2654L45.6982 21.4467C45.7131 21.5392 45.7355 21.6163 45.7654 21.678C45.8002 21.7396 45.8425 21.7705 45.8922 21.7705C45.9768 21.7705 46.039 21.6626 46.0788 21.4467L46.4817 18.9957H47.5936Z" fill="#FE9B0B"/>
<path d="M49.1205 21.177C49.1852 21.3979 49.2921 21.5778 49.4414 21.7165C49.5906 21.8552 49.7971 21.9246 50.0608 21.9246C50.1404 21.9246 50.2249 21.9195 50.3145 21.9092C50.409 21.8938 50.501 21.8758 50.5906 21.8552C50.6801 21.8296 50.7647 21.8039 50.8443 21.7782C50.9239 21.7473 50.9935 21.7191 51.0532 21.6934C51.0632 21.8424 51.0682 22.0017 51.0682 22.1713C51.0731 22.3357 51.0756 22.5001 51.0756 22.6646C51.0756 22.9369 51.0682 23.181 51.0532 23.3968C50.6652 23.5921 50.2299 23.6897 49.7473 23.6897C49.5235 23.6897 49.2971 23.664 49.0683 23.6126C48.8394 23.5612 48.6181 23.4636 48.4041 23.3197C48.2151 23.1913 48.0584 23.0422 47.934 22.8727C47.8146 22.698 47.7201 22.5207 47.6505 22.3408C47.5808 22.1558 47.5335 21.976 47.5087 21.8013C47.4838 21.6266 47.4714 21.4699 47.4714 21.3311C47.4714 21.1256 47.4937 20.9123 47.5385 20.6914C47.5883 20.4653 47.6629 20.252 47.7624 20.0516C47.8619 19.8461 47.9887 19.6585 48.143 19.489C48.2972 19.3194 48.4788 19.1858 48.6877 19.0882C48.9414 18.97 49.2101 18.9109 49.4936 18.9109C49.7921 18.9109 50.0608 18.9726 50.2995 19.0959C50.5383 19.2192 50.7324 19.3888 50.8816 19.6046C51.0259 19.8101 51.1154 20.0388 51.1502 20.2906C51.19 20.5424 51.2099 20.8378 51.2099 21.177H49.1205ZM49.5459 19.7433C49.4414 19.7433 49.3419 19.7896 49.2474 19.8821C49.1529 19.9694 49.0907 20.1262 49.0608 20.3522H50.0384C50.0185 20.1467 49.9588 19.9951 49.8593 19.8975C49.7648 19.7947 49.6603 19.7433 49.5459 19.7433Z" fill="#FE9B0B"/>
<path d="M52.4372 18.9957L52.4894 19.5815C52.5491 19.4838 52.6213 19.3939 52.7058 19.3117C52.7904 19.2295 52.8775 19.1601 52.967 19.1036C53.0615 19.0419 53.1536 18.9957 53.2431 18.9649C53.3376 18.9289 53.4247 18.9109 53.5043 18.9109C53.5142 19.0445 53.5217 19.1987 53.5267 19.3734C53.5366 19.5429 53.5416 19.7176 53.5416 19.8975C53.5416 20.103 53.5366 20.306 53.5267 20.5064C53.5217 20.7068 53.5142 20.8918 53.5043 21.0614C53.4595 21.0408 53.3973 21.0254 53.3177 21.0151C53.2381 21.0048 53.171 20.9997 53.1163 20.9997C52.9322 20.9997 52.7954 21.0459 52.7058 21.1384C52.6213 21.2258 52.579 21.3363 52.579 21.4699V23.6049H51.482C51.487 22.7725 51.4895 21.9837 51.4895 21.2386C51.4945 20.4884 51.4969 19.7408 51.4969 18.9957H52.4372Z" fill="#FE9B0B"/>
<path d="M57.0672 18.9957L55.5299 25H54.4031L54.7539 23.4739L53.6047 18.9957H54.7837L55.1941 21.2386C55.219 21.3568 55.2389 21.4467 55.2538 21.5084C55.2737 21.5701 55.3036 21.6009 55.3434 21.6009C55.4081 21.6009 55.4628 21.4801 55.5076 21.2386L55.9329 18.9957H57.0672Z" fill="#FE9B0B"/>
</svg>
